<svg width="34" height="34" viewBox="0 0 34 34" fill="none" xmlns="http://www.w3.org/2000/svg">
<g clip-path="url(#clip0_1038_141)">
<path d="M24.9333 0H9.06667C4.05928 0 0 4.05928 0 9.06667V24.9333C0 29.9407 4.05928 34 9.06667 34H24.9333C29.9407 34 34 29.9407 34 24.9333V9.06667C34 4.05928 29.9407 0 24.9333 0Z" fill="#FF4D77"/>
<path d="M26.5682 7.8556L19.8578 5.12398C19.0017 4.76888 18.0628 4.60498 17.1239 4.60498C16.2127 4.60498 15.2738 4.76888 14.4177 5.12398L7.70729 7.8556C6.32655 8.40193 5.44287 9.65845 5.44287 11.0789V15.0944C5.44287 21.6229 10.3859 27.6324 16.9583 29.0802C17.0135 29.1075 17.0687 29.1075 17.1516 29.1075C17.2344 29.1075 17.262 29.1075 17.3449 29.0802C23.9172 27.6324 28.8603 21.5956 28.8603 15.0944V11.0789C28.8326 9.65845 27.949 8.40193 26.5682 7.8556ZM22.0394 25.0374C20.6034 26.1301 18.9466 26.9496 17.1516 27.3866C15.3566 26.9496 13.6721 26.1301 12.2637 25.0374V12.8545C12.2637 12.5813 12.4847 12.3901 12.7332 12.3901H16.2127H16.8754C17.0687 12.3901 17.2068 12.6086 17.0687 12.7998C16.6269 13.3188 16.0746 13.7012 15.4671 13.9471C15.3842 13.9744 15.4119 14.0837 15.4946 14.0837C16.4336 14.029 17.3173 13.6739 18.0352 12.991C17.9524 13.1549 17.8695 13.3461 17.7867 13.4827C17.1516 14.3842 16.3231 14.8485 15.4946 15.3129C15.4395 15.3402 15.4671 15.4494 15.5499 15.4494C17.0411 15.1763 18.5323 14.6027 19.4436 13.073C19.4988 12.9637 19.5817 12.8545 19.6369 12.7179C19.7198 12.5266 19.9131 12.4174 20.1064 12.4174H20.7967H21.5975C21.8737 12.4174 22.067 12.6359 22.067 12.8818V25.0374H22.0394ZM27.1481 15.0671C27.1481 18.2084 25.8503 21.1859 23.7239 23.4804V12.8271C23.7239 11.6526 22.7574 10.6692 21.5423 10.6692H12.7056C11.5181 10.6692 10.524 11.6252 10.524 12.8271V23.4804C8.42526 21.2132 7.12736 18.2084 7.12736 15.0671V11.0789C7.12736 10.3687 7.59684 9.71308 8.34241 9.41263L15.0528 6.70833C16.3784 6.162 17.8695 6.162 19.195 6.70833L25.9054 9.41263C26.6511 9.71308 27.1206 10.3687 27.1206 11.0789V15.0671H27.1481Z" fill="white"/>
<path d="M13.8931 19.0827V18.8642C13.8931 18.2906 14.3625 17.8262 14.9424 17.8262C15.5223 17.8262 15.9918 18.2906 15.9918 18.8642V19.0827H13.8931Z" fill="white"/>
<path d="M18.2837 19.0827V18.8642C18.2837 18.2906 18.7532 17.8262 19.333 17.8262C19.913 17.8262 20.3825 18.2906 20.3825 18.8642V19.0827H18.2837Z" fill="white"/>
<path d="M17.1241 23.9172C15.9919 23.9172 14.9702 23.1797 14.3626 21.9232L14.2798 21.7866H19.9132L19.8304 21.9232C19.2781 23.1524 18.2563 23.9172 17.1241 23.9172Z" fill="white"/>
</g>
<defs>
<clipPath id="clip0_1038_141">
<rect width="34" height="34" fill="white"/>
</clipPath>
</defs>
</svg>
