<svg width="100" height="100" viewBox="0 0 100 100" fill="none" xmlns="http://www.w3.org/2000/svg">
<g clip-path="url(#clip0_1031_710)">
<path d="M73.3333 0H26.6667C11.9391 0 0 11.9391 0 26.6667V73.3333C0 88.0609 11.9391 100 26.6667 100H73.3333C88.0609 100 100 88.0609 100 73.3333V26.6667C100 11.9391 88.0609 0 73.3333 0Z" fill="#FF4D77"/>
<path d="M78.1427 23.1051L58.4062 15.0709C55.8883 14.0265 53.1268 13.5444 50.3653 13.5444C47.6852 13.5444 44.9237 14.0265 42.4058 15.0709L22.6693 23.1051C18.6083 24.7119 16.0093 28.4076 16.0093 32.5854V44.3956C16.0093 63.5971 30.5477 81.2723 49.8782 85.5304C50.0405 85.6108 50.203 85.6108 50.4467 85.6108C50.6903 85.6108 50.7715 85.6108 51.0152 85.5304C70.3455 81.2723 84.884 63.5168 84.884 44.3956V32.5854C84.8027 28.4076 82.2037 24.7119 78.1427 23.1051ZM64.8227 73.6399C60.5992 76.8536 55.726 79.2638 50.4467 80.5493C45.1673 79.2638 40.2128 76.8536 36.0707 73.6399V37.8076C36.0707 37.0041 36.7205 36.4418 37.4513 36.4418H47.6852H49.6345C50.203 36.4418 50.609 37.0844 50.203 37.6469C48.9035 39.1734 47.279 40.2981 45.4922 41.0213C45.2485 41.1016 45.3298 41.4229 45.5733 41.4229C48.3348 41.2622 50.934 40.2178 53.0457 38.2093C52.802 38.6913 52.5583 39.2538 52.3147 39.6554C50.4467 42.3068 48.01 43.6724 45.5733 45.0383C45.411 45.1186 45.4922 45.4399 45.7358 45.4399C50.1217 44.6366 54.5077 42.9494 57.1878 38.4503C57.3503 38.1289 57.594 37.8076 57.7565 37.4059C58.0002 36.8434 58.5687 36.5221 59.1372 36.5221H61.1677H63.523C64.3353 36.5221 64.9038 37.1648 64.9038 37.8879V73.6399H64.8227ZM79.8483 44.3153C79.8483 53.5544 76.031 62.3118 69.777 69.0604V37.7273C69.777 34.2726 66.9343 31.3803 63.3607 31.3803H37.3702C33.8777 31.3803 30.9538 34.1923 30.9538 37.7273V69.0604C24.781 62.3921 20.9637 53.5544 20.9637 44.3153V32.5854C20.9637 30.4964 22.3445 28.5683 24.5373 27.6846L44.2738 19.7308C48.1725 18.1239 52.5583 18.1239 56.4568 19.7308L76.1933 27.6846C78.3863 28.5683 79.7672 30.4964 79.7672 32.5854V44.3153H79.8483Z" fill="white"/>
<path d="M40.8618 56.1258V55.4832C40.8618 53.796 42.2425 52.4302 43.9482 52.4302C45.6538 52.4302 47.0345 53.796 47.0345 55.4832V56.1258H40.8618Z" fill="white"/>
<path d="M53.7759 56.1258V55.4832C53.7759 53.796 55.1567 52.4302 56.8622 52.4302C58.5679 52.4302 59.9487 53.796 59.9487 55.4832V56.1258H53.7759Z" fill="white"/>
<path d="M50.3652 70.3451C47.0352 70.3451 44.03 68.1759 42.2432 64.4803L41.9995 64.0786H58.5685L58.3248 64.4803C56.7003 68.0956 53.6952 70.3451 50.3652 70.3451Z" fill="white"/>
</g>
<defs>
<clipPath id="clip0_1031_710">
<rect width="100" height="100" fill="white"/>
</clipPath>
</defs>
</svg>
