<svg width="32" height="32" viewBox="0 0 32 32" fill="none" xmlns="http://www.w3.org/2000/svg">
<path d="M23.0706 12.6989L27.3133 16.9415C28.0018 17.6208 28.5491 18.4296 28.9237 19.3213C29.2983 20.2129 29.4928 21.1699 29.496 22.1371C29.4993 23.1042 29.3112 24.0625 28.9425 24.9566C28.5739 25.8508 28.0321 26.6632 27.3482 27.3471C26.6643 28.031 25.8519 28.5728 24.9577 28.9414C24.0636 29.31 23.1053 29.4981 22.1382 29.4949C21.171 29.4917 20.214 29.2971 19.3224 28.9225C18.4307 28.5479 17.6219 28.0007 16.9426 27.3122L15.5293 25.8989C15.3382 25.7145 15.1857 25.4939 15.0808 25.2499C14.9759 25.0059 14.9206 24.7435 14.9182 24.478C14.9157 24.2124 14.9662 23.949 15.0666 23.7032C15.1671 23.4574 15.3155 23.234 15.5032 23.0461C15.6909 22.8582 15.9141 22.7096 16.1599 22.6089C16.4056 22.5083 16.6689 22.4575 16.9345 22.4597C17.2001 22.4619 17.4625 22.5169 17.7066 22.6216C17.9506 22.7264 18.1714 22.8786 18.356 23.0695L19.772 24.4842C20.3981 25.1047 21.2446 25.4519 22.1261 25.4499C23.0076 25.4478 23.8524 25.0967 24.4757 24.4732C25.0989 23.8498 25.4499 23.0049 25.4517 22.1234C25.4535 21.2419 25.106 20.3955 24.4853 19.7695L20.2426 15.5269C19.7841 15.0681 19.2016 14.7531 18.5667 14.6205C17.9317 14.4878 17.2719 14.5434 16.668 14.7802C16.4529 14.8655 16.2511 14.9527 16.0626 15.0415L15.444 15.3309C14.6173 15.7042 13.9813 15.8642 13.172 15.0562C12.0093 13.8935 12.3106 12.8202 13.728 11.8429C15.1399 10.8714 16.8474 10.425 18.5541 10.5814C20.2608 10.7378 21.8588 11.487 23.0706 12.6989ZM15.0573 4.68554L16.4706 6.09887C16.8351 6.47591 17.037 6.98102 17.0327 7.50541C17.0284 8.02981 16.8183 8.53154 16.4476 8.90253C16.077 9.27352 15.5754 9.4841 15.0511 9.4889C14.5267 9.4937 14.0214 9.29235 13.644 8.92821L12.2293 7.51487C11.9219 7.19642 11.5542 6.94238 11.1475 6.76757C10.7409 6.59276 10.3035 6.50068 9.86094 6.49671C9.41835 6.49274 8.97939 6.57695 8.56969 6.74444C8.15999 6.91193 7.78775 7.15933 7.47468 7.47222C7.16162 7.7851 6.914 8.15721 6.74629 8.56681C6.57857 8.97642 6.4941 9.41533 6.49782 9.85793C6.50154 10.3005 6.59337 10.7379 6.76795 11.1447C6.94253 11.5514 7.19637 11.9193 7.51465 12.2269L11.7573 16.4695C12.2159 16.9283 12.7983 17.2433 13.4333 17.3759C14.0683 17.5086 14.7281 17.4531 15.332 17.2162C15.5471 17.1309 15.7489 17.0438 15.9373 16.9549L16.556 16.6655C17.3826 16.2922 18.02 16.1322 18.828 16.9402C19.9907 18.1029 19.6893 19.1762 18.272 20.1535C16.8601 21.1251 15.1525 21.5714 13.4459 21.415C11.7392 21.2587 10.1411 20.5095 8.92932 19.2975L4.68665 15.0549C3.9982 14.3756 3.45091 13.5668 3.07631 12.6752C2.70171 11.7835 2.50719 10.8265 2.50395 9.85937C2.50071 8.89221 2.68881 7.93396 3.05743 7.0398C3.42605 6.14565 3.9679 5.33323 4.65179 4.64935C5.33568 3.96546 6.14809 3.42361 7.04225 3.05499C7.93641 2.68637 8.89465 2.49827 9.86181 2.50151C10.829 2.50475 11.7859 2.69927 12.6776 3.07387C13.5693 3.44847 14.378 3.99709 15.0573 4.68554Z" fill="#DA2720"/>
</svg>
