<svg width="34" height="34" viewBox="0 0 34 34" fill="none" xmlns="http://www.w3.org/2000/svg">
<g clip-path="url(#clip0_1038_162)">
<path fill-rule="evenodd" clip-rule="evenodd" d="M10.2102 0.106934H23.7877C27.3017 0.106934 28.5744 0.472979 29.8612 1.16002C31.1302 1.8321 32.1681 2.86998 32.8402 4.13907C33.5272 5.42586 33.8933 6.69856 33.8933 10.2126V23.7901C33.8933 27.3041 33.5272 28.5768 32.8402 29.8636C32.1681 31.1327 31.1302 32.1706 29.8612 32.8427C28.5744 33.5297 27.3017 33.8957 23.7877 33.8957H10.2102C6.69614 33.8957 5.42342 33.5297 4.13662 32.8427C2.86754 32.1706 1.82966 31.1327 1.15758 29.8636C0.470538 28.5768 0.104492 27.3041 0.104492 23.7901V10.2126C0.104492 6.69856 0.470538 5.42586 1.15758 4.13907C1.82966 2.86998 2.86754 1.8321 4.13662 1.16002C5.42342 0.472979 6.69614 0.106934 10.2102 0.106934Z" fill="#FB8833"/>
<path d="M22.6667 0H11.3333C5.07411 0 0 5.0741 0 11.3333V22.6667C0 28.9259 5.0741 34 11.3333 34H22.6667C28.9259 34 34 28.9259 34 22.6667V11.3333C34 5.07411 28.9259 0 22.6667 0Z" fill="#FA7716"/>
<path d="M26.8536 7.02506L19.8425 4.15861C18.0187 3.41913 15.9785 3.41913 14.1547 4.15861L7.14347 7.02506C6.44942 7.29371 5.85124 7.76331 5.42542 8.37372C4.99959 8.98408 4.76545 9.7076 4.75293 10.4518V15.5652C4.75293 22.4524 9.92824 28.7991 16.7902 30.3534L16.9901 30.3985L17.19 30.3534C24.052 28.8104 29.2273 22.4524 29.2273 15.5652V10.4518C29.2161 9.70958 28.9844 8.98748 28.5618 8.37729C28.1392 7.76711 27.5445 7.29638 26.8536 7.02506Z" fill="white"/>
<path d="M28.329 10.4521V15.5626C28.329 21.9938 23.4944 28.011 16.9985 29.4667V4.51368C17.8557 4.51215 18.7049 4.6776 19.4989 5.0008L26.5016 7.86438C27.0289 8.0652 27.4844 8.41863 27.8099 8.87956C28.1354 9.34049 28.3162 9.88794 28.329 10.4521Z" fill="#FA7716"/>
<path d="M26.2342 13.2282C26.1683 12.3156 25.7698 11.4589 25.1143 10.8206C24.4589 10.1822 23.5919 9.80652 22.6779 9.76482H22.5344C21.5542 9.76759 20.6146 10.156 19.9185 10.846C19.682 10.7644 19.4427 10.6884 19.2005 10.6264C19.147 10.404 19.0653 10.0633 19.0147 9.87458C18.9705 9.68764 18.869 9.51917 18.7243 9.3928C18.5796 9.26643 18.399 9.18846 18.2079 9.16987C18.0167 9.15123 17.8244 9.19288 17.6581 9.28893C17.4917 9.38504 17.3596 9.53073 17.2802 9.70566C17.1369 9.60983 16.9683 9.55883 16.7959 9.55923C16.6631 9.55974 16.5322 9.59006 16.4127 9.64808C16.2933 9.70611 16.1885 9.79026 16.106 9.8943C16.0545 9.96026 16.0128 10.0332 15.9821 10.1111L15.8132 10.0661C15.7388 10.0461 15.6622 10.0357 15.5851 10.0351C15.4154 10.0355 15.2494 10.0848 15.107 10.1772C14.9647 10.2696 14.852 10.4011 14.7826 10.556C14.7826 10.5814 14.7601 10.6067 14.7516 10.632C14.5236 10.694 14.2927 10.7644 14.0674 10.8432C13.372 10.1522 12.4319 9.76357 11.4516 9.76198H11.308C10.6082 9.78935 9.93044 10.0143 9.35318 10.4109C8.77597 10.8074 8.32281 11.3594 8.04616 12.0028C7.76957 12.6461 7.68077 13.3547 7.79008 14.0464C7.89945 14.7382 8.20245 15.3848 8.664 15.9116C8.27385 16.7996 8.06696 17.7573 8.05585 18.7273C8.05585 20.0901 9.05823 21.619 10.742 22.8185C12.5692 24.1083 14.7508 24.8008 16.9873 24.8008C19.2238 24.8008 21.4055 24.1083 23.2327 22.8185C24.9221 21.619 25.9188 20.0901 25.9188 18.7273C25.9077 17.7573 25.7008 16.7996 25.3106 15.9116C25.9594 15.1734 26.2912 14.2092 26.2342 13.2282Z" fill="black"/>
<path d="M25.4656 13.2765C25.4256 12.6723 25.1999 12.0953 24.8193 11.6244C24.4388 11.1535 23.9219 10.8117 23.3396 10.6459C22.7573 10.48 22.138 10.4982 21.5664 10.6979C20.9948 10.8977 20.499 11.2692 20.1467 11.7616C19.7053 11.5729 19.2484 11.4231 18.7811 11.3139C18.7122 11.2985 18.6492 11.2639 18.5993 11.214C18.5495 11.1641 18.5148 11.1011 18.4995 11.0323C18.4995 11.0323 18.3389 10.3735 18.2601 10.0609C18.2487 10.0329 18.2292 10.009 18.2041 9.99215C18.1791 9.97526 18.1496 9.96631 18.1194 9.96631C18.0891 9.96631 18.0596 9.97526 18.0345 9.99215C18.0094 10.009 17.9899 10.0329 17.9785 10.0609C17.8913 10.396 17.7815 10.8015 17.7111 11.0436C17.7039 11.0696 17.6879 11.0923 17.6658 11.1077C17.6436 11.1232 17.6168 11.1304 17.59 11.1281C17.5739 11.1281 17.558 11.1246 17.5433 11.1178C17.5287 11.111 17.5158 11.101 17.5055 11.0886L16.8861 10.3678C16.8708 10.3506 16.8504 10.3388 16.8278 10.3344C16.8052 10.33 16.7818 10.3332 16.7612 10.3434C16.7407 10.3537 16.7241 10.3706 16.714 10.3913C16.704 10.4119 16.7011 10.4354 16.7058 10.4579L16.7931 10.8211C16.8011 10.8539 16.8004 10.8883 16.7912 10.9207C16.7819 10.9532 16.7643 10.9827 16.7402 11.0063C16.716 11.0299 16.6861 11.0468 16.6534 11.0553C16.6207 11.0638 16.5864 11.0637 16.5538 11.0549L15.6274 10.8071C15.6042 10.8012 15.5797 10.8029 15.5575 10.8119C15.5352 10.821 15.5165 10.8368 15.5039 10.8573C15.4914 10.8777 15.4857 10.9015 15.4876 10.9254C15.4895 10.9494 15.4991 10.972 15.5148 10.9901L15.5908 11.0886C15.6008 11.1011 15.6074 11.1158 15.61 11.1315C15.6127 11.1472 15.6112 11.1633 15.6059 11.1782C15.6005 11.1933 15.5914 11.2066 15.5794 11.217C15.5674 11.2275 15.5529 11.2346 15.5373 11.2379C14.9568 11.3478 14.3902 11.5215 13.8479 11.756C13.6034 11.4173 13.2895 11.1347 12.9272 10.927C12.5648 10.7192 12.1623 10.5912 11.7466 10.5514C11.3308 10.5116 10.9113 10.5609 10.5161 10.6961C10.1209 10.8313 9.7591 11.0492 9.45486 11.3353C9.15056 11.6214 8.9108 11.9691 8.75157 12.3553C8.59234 12.7414 8.51731 13.157 8.53148 13.5744C8.54564 13.9919 8.64872 14.4015 8.83373 14.7759C9.01881 15.1504 9.28157 15.4811 9.60457 15.7459C9.11849 16.6651 8.85431 17.6853 8.83306 18.7249C8.83306 20.8311 12.333 24.041 16.9987 24.041C21.6644 24.041 25.1643 20.8311 25.1643 18.7249C25.1448 17.6858 24.8825 16.6656 24.3984 15.7459C24.76 15.4489 25.0454 15.0699 25.231 14.6404C25.4167 14.2109 25.4971 13.7433 25.4656 13.2765Z" fill="#FA7716"/>
<path d="M7.56861 17.4831C7.75403 17.5545 7.95769 17.5634 8.14865 17.5084L8.65265 17.4071C9.345 17.2507 10.0557 17.191 10.7644 17.2297C11.1323 17.249 11.4988 17.2875 11.8626 17.3451C11.9274 17.3541 11.9932 17.3373 12.0458 17.2983C12.0984 17.2594 12.1337 17.2014 12.1442 17.1368C12.1516 17.0855 12.1432 17.0332 12.1201 16.9869C12.0969 16.9406 12.0601 16.9025 12.0146 16.8777C11.2913 16.5 10.4931 16.2874 9.67758 16.2554C9.15143 16.2173 8.62284 16.2804 8.12049 16.4413C7.84843 16.5066 7.6046 16.6576 7.42502 16.8721C7.38042 16.9163 7.34784 16.9712 7.33044 17.0315C7.31299 17.0918 7.31123 17.1556 7.32534 17.2168C7.3394 17.278 7.36892 17.3345 7.41097 17.3812C7.45307 17.4277 7.50634 17.4629 7.56578 17.4831H7.56861Z" fill="black"/>
<path d="M7.46729 19.6822C7.66421 19.7412 7.87512 19.7333 8.06705 19.6597L8.58232 19.4964C9.27213 19.2467 9.98256 19.0582 10.7054 18.9332C11.0676 18.8715 11.4335 18.8348 11.8007 18.8234C11.8347 18.8241 11.8685 18.8181 11.9001 18.8055C11.9317 18.7929 11.9604 18.7741 11.9846 18.7502C12.0087 18.7263 12.0278 18.6977 12.0407 18.6663C12.0537 18.6348 12.0601 18.6011 12.0598 18.5671C12.0587 18.5156 12.0416 18.4656 12.0108 18.4242C11.9801 18.3829 11.9371 18.3521 11.888 18.3363C11.0889 18.1088 10.2491 18.0626 9.42989 18.2011C8.91422 18.2601 8.41023 18.3958 7.93468 18.6037C7.67855 18.6958 7.4559 18.8625 7.29554 19.0824C7.2527 19.1289 7.22249 19.1855 7.20782 19.2469C7.1932 19.3083 7.1945 19.3725 7.21178 19.4333C7.22901 19.494 7.26154 19.5493 7.3063 19.5939C7.35101 19.6385 7.40649 19.6708 7.46729 19.6878V19.6822Z" fill="black"/>
<path d="M8.20237 22.2837C8.39912 22.3088 8.59847 22.264 8.76552 22.1569C8.91756 22.0696 9.0696 21.9795 9.21602 21.8754C9.51449 21.6867 9.79606 21.4727 10.0945 21.2784C10.6915 20.8814 11.3025 20.5125 11.922 20.1521C11.9504 20.1351 11.9751 20.1125 11.9948 20.0858C12.0144 20.0591 12.0287 20.0288 12.0365 19.9966C12.0444 19.9644 12.0457 19.9309 12.0406 19.8982C12.0354 19.8654 12.0238 19.834 12.0064 19.8058C11.9806 19.762 11.9417 19.7274 11.8953 19.7067C11.8489 19.6861 11.7972 19.6803 11.7474 19.6904C11.0037 19.8436 10.2834 20.0935 9.60459 20.4337C9.08036 20.6657 8.59501 20.9773 8.16576 21.3573C8.08354 21.4275 8.01622 21.5136 7.96788 21.6103C7.91949 21.707 7.89104 21.8125 7.88419 21.9204C7.87773 22.0124 7.9068 22.1035 7.9655 22.1747C8.02415 22.246 8.10796 22.292 8.19954 22.3033L8.20237 22.2837Z" fill="black"/>
<path d="M26.4288 17.4831C26.2434 17.5545 26.0397 17.5634 25.8488 17.5084L25.3447 17.4071C24.6524 17.2507 23.9417 17.191 23.2329 17.2297C22.8651 17.249 22.4986 17.2875 22.1348 17.3451C22.07 17.3541 22.0042 17.3373 21.9516 17.2983C21.8989 17.2594 21.8636 17.2014 21.8532 17.1368C21.8458 17.0855 21.8542 17.0332 21.8774 16.9869C21.9005 16.9406 21.9373 16.9025 21.9828 16.8777C22.7062 16.5 23.5044 16.2874 24.3198 16.2554C24.8459 16.2173 25.3745 16.2804 25.8769 16.4413C26.1489 16.5066 26.3928 16.6576 26.5724 16.8721C26.617 16.9163 26.6495 16.9712 26.667 17.0315C26.6844 17.0918 26.6862 17.1556 26.6721 17.2168C26.658 17.278 26.6285 17.3345 26.5864 17.3812C26.5443 17.4277 26.491 17.4629 26.4316 17.4831H26.4288Z" fill="black"/>
<path d="M26.53 19.6822C26.3331 19.7412 26.1222 19.7333 25.9302 19.6597L25.415 19.4964C24.7252 19.2467 24.0147 19.0582 23.2919 18.9332C22.9297 18.8715 22.5637 18.8348 22.1965 18.8234C22.1626 18.8241 22.1288 18.8181 22.0972 18.8055C22.0656 18.7929 22.0369 18.7741 22.0127 18.7502C21.9885 18.7263 21.9694 18.6977 21.9565 18.6663C21.9436 18.6348 21.9371 18.6011 21.9375 18.5671C21.9385 18.5156 21.9557 18.4656 21.9864 18.4242C22.0172 18.3829 22.0602 18.3521 22.1093 18.3363C22.9084 18.1088 23.7482 18.0626 24.5674 18.2011C25.0831 18.2601 25.587 18.3958 26.0626 18.6037C26.3188 18.6958 26.5414 18.8625 26.7018 19.0824C26.7445 19.1289 26.7748 19.1855 26.7894 19.2469C26.8041 19.3083 26.8027 19.3725 26.7855 19.4333C26.7683 19.494 26.7357 19.5493 26.691 19.5939C26.6462 19.6385 26.5908 19.6708 26.53 19.6878V19.6822Z" fill="black"/>
<path d="M25.7949 22.2837C25.5981 22.3088 25.3988 22.264 25.2317 22.1569C25.0797 22.0696 24.9277 21.9795 24.7812 21.8754C24.4828 21.6867 24.2012 21.4727 23.9027 21.2784C23.3058 20.8814 22.6948 20.5125 22.0753 20.1521C22.0469 20.1351 22.0221 20.1125 22.0025 20.0858C21.9828 20.0591 21.9686 20.0288 21.9608 19.9966C21.9529 19.9644 21.9515 19.9309 21.9567 19.8982C21.9618 19.8654 21.9734 19.834 21.9908 19.8058C22.0167 19.762 22.0556 19.7274 22.102 19.7067C22.1484 19.6861 22.2001 19.6803 22.2499 19.6904C22.9935 19.8436 23.7138 20.0935 24.3927 20.4337C24.9169 20.6657 25.4022 20.9773 25.8315 21.3573C25.9137 21.4275 25.981 21.5136 26.0294 21.6103C26.0778 21.707 26.1062 21.8125 26.1131 21.9204C26.1195 22.0124 26.0905 22.1035 26.0317 22.1747C25.9731 22.246 25.8893 22.292 25.7977 22.3033L25.7949 22.2837Z" fill="black"/>
<path d="M16.999 25.5867C19.0657 25.5867 20.7411 24.1647 20.7411 22.4105C20.7411 20.6564 19.0657 19.2344 16.999 19.2344C14.9322 19.2344 13.2568 20.6564 13.2568 22.4105C13.2568 24.1647 14.9322 25.5867 16.999 25.5867Z" fill="white"/>
<path d="M19.3215 21.273C19.2657 21.238 19.1985 21.2263 19.1341 21.2406C19.0699 21.2548 19.0138 21.2937 18.978 21.349C18.8652 21.4737 18.7236 21.569 18.5655 21.6264C18.4076 21.6838 18.2378 21.7017 18.0713 21.6784C17.9412 21.6668 17.815 21.6282 17.7006 21.5652C17.5862 21.5021 17.4862 21.4161 17.4068 21.3124C17.2889 21.1491 17.2303 20.9504 17.2407 20.7493C17.659 20.6173 18.0528 20.4175 18.4064 20.158C18.764 19.8398 18.8119 19.3723 18.3107 19.2231C17.4391 19.0467 16.541 19.0467 15.6695 19.2231C15.1683 19.3723 15.2161 19.8398 15.5738 20.158C15.9274 20.4168 16.3212 20.6157 16.7395 20.7464C16.7435 20.9133 16.7019 21.0782 16.619 21.2231C16.5361 21.368 16.4152 21.4875 16.2692 21.5686C16.1586 21.6224 16.0396 21.6567 15.9173 21.67C15.7541 21.6921 15.5879 21.6745 15.433 21.6186C15.2781 21.5627 15.139 21.4702 15.0275 21.349C15.009 21.3213 14.9852 21.2975 14.9576 21.2789C14.9299 21.2603 14.8988 21.2474 14.8661 21.2409C14.8334 21.2344 14.7998 21.2343 14.7671 21.2408C14.7344 21.2473 14.7033 21.2601 14.6755 21.2786C14.6478 21.2971 14.624 21.3209 14.6054 21.3486C14.5869 21.3762 14.574 21.4073 14.5674 21.44C14.5609 21.4727 14.5608 21.5063 14.5673 21.539C14.5738 21.5717 14.5866 21.6028 14.6052 21.6306C14.7474 21.8135 14.9312 21.96 15.1412 22.0579C15.3512 22.1558 15.5815 22.2024 15.8131 22.1937H15.9877C16.1885 22.1704 16.3822 22.1051 16.5563 22.0023C16.7304 21.8995 16.8811 21.7614 16.9985 21.5968C17.1189 21.7588 17.2717 21.8941 17.4472 21.994C17.6227 22.0939 17.817 22.1561 18.0178 22.1768H18.1924C18.4239 22.1854 18.6543 22.1389 18.8643 22.041C19.0744 21.9431 19.2581 21.7966 19.4004 21.6137C19.4342 21.5578 19.4449 21.4909 19.4302 21.4273C19.4154 21.3637 19.3764 21.3083 19.3215 21.273Z" fill="black"/>
<path d="M20.203 17.6545C20.0815 17.466 19.9 17.3241 19.6877 17.2519C19.3608 17.1411 19.0066 17.1411 18.6796 17.2519C18.4674 17.3226 18.2856 17.4636 18.1644 17.6517C18.0917 17.5102 18.0662 17.3492 18.0916 17.1921C18.1169 17.0351 18.1917 16.8903 18.3051 16.7788C18.4169 16.6578 18.5529 16.5617 18.7042 16.4967C18.8556 16.4317 19.019 16.3993 19.1836 16.4015C19.3477 16.4005 19.5103 16.4335 19.661 16.4985C19.8117 16.5634 19.9473 16.6589 20.0594 16.7788C20.1739 16.8902 20.2496 17.0353 20.2755 17.193C20.3013 17.3506 20.2759 17.5124 20.203 17.6545Z" fill="black"/>
<path d="M15.8331 17.6546C15.7098 17.4642 15.5249 17.3221 15.3094 17.2519C15.1462 17.1963 14.9749 17.1687 14.8025 17.1703C14.6309 17.1695 14.4604 17.198 14.2985 17.2547C14.0862 17.3255 13.9044 17.4665 13.7832 17.6546C13.7105 17.5129 13.6852 17.3516 13.711 17.1944C13.7369 17.0373 13.8125 16.8926 13.9268 16.7817C14.0381 16.6608 14.1735 16.5647 14.3244 16.4997C14.4753 16.4347 14.6382 16.4022 14.8025 16.4044C14.9666 16.4034 15.1292 16.4364 15.2798 16.5014C15.4306 16.5663 15.5662 16.6617 15.6782 16.7817C15.7943 16.8913 15.8721 17.0353 15.9 17.1925C15.9279 17.3497 15.9044 17.5117 15.8331 17.6546Z" fill="black"/>
<path d="M12.4739 12.2992C11.5458 12.8953 10.737 13.6592 10.0889 14.5517C9.94103 14.3952 9.82543 14.211 9.74871 14.0097C9.67198 13.8084 9.63566 13.594 9.64178 13.3787C9.65419 12.9438 9.83886 12.5317 10.1551 12.233C10.4714 11.9343 10.8934 11.7734 11.3282 11.7858C11.5435 11.792 11.7555 11.8405 11.9521 11.9286C12.1487 12.0166 12.326 12.1425 12.4739 12.2992Z" fill="white"/>
<path d="M24.3195 13.462C24.3179 13.8832 24.1522 14.2872 23.8577 14.5883C23.5669 14.2038 23.2457 13.8432 22.8975 13.5099C22.4531 13.088 21.9683 12.7108 21.4502 12.3836C21.6699 12.1337 21.9605 11.9568 22.2833 11.8761C22.6061 11.7954 22.9458 11.8149 23.2572 11.9319C23.5687 12.049 23.8371 12.2581 24.0269 12.5314C24.2166 12.8047 24.3187 13.1293 24.3195 13.462Z" fill="white"/>
<path d="M16.8633 14.3408L14.8726 13.6453C14.8634 13.6411 14.8529 13.6405 14.8432 13.6434C14.8335 13.6462 14.8251 13.6525 14.8197 13.6611C14.8142 13.6696 14.812 13.6799 14.8134 13.6899C14.8149 13.6999 14.8199 13.7091 14.8275 13.7157L16.8155 15.2616C16.8678 15.3011 16.9315 15.3225 16.9971 15.3225C17.0626 15.3225 17.1264 15.3011 17.1787 15.2616L19.1666 13.7157C19.1742 13.7091 19.1793 13.6999 19.1807 13.6899C19.1822 13.6799 19.1799 13.6696 19.1744 13.6611C19.169 13.6525 19.1606 13.6462 19.1509 13.6434C19.1412 13.6405 19.1308 13.6411 19.1215 13.6453L17.1308 14.3408C17.0443 14.3718 16.9498 14.3718 16.8633 14.3408Z" fill="black"/>
<path d="M16.8886 12.8173L15.264 12.2541C15.2245 12.2541 15.1935 12.2851 15.2274 12.3104L16.852 13.5747C16.8927 13.6049 16.9421 13.6212 16.9928 13.6212C17.0435 13.6212 17.0929 13.6049 17.1336 13.5747L18.7583 12.3104C18.7921 12.2851 18.7583 12.2401 18.7217 12.2541L17.097 12.8173C17.0294 12.8401 16.9562 12.8401 16.8886 12.8173Z" fill="black"/>
</g>
<defs>
<clipPath id="clip0_1038_162">
<rect width="34" height="34" fill="white"/>
</clipPath>
</defs>
</svg>
