<svg width="210" height="210" viewBox="0 0 210 210" fill="none" xmlns="http://www.w3.org/2000/svg">
<g clip-path="url(#clip0_1031_694)">
<path d="M210 0H0V210H210V0Z" fill="white"/>
<path d="M7.77783 7.77783H15.5556V15.5556H7.77783V7.77783ZM15.5556 7.77783H23.3334V15.5556H15.5556V7.77783ZM23.3334 7.77783H31.1112V15.5556H23.3334V7.77783ZM31.1112 7.77783H38.8889V15.5556H31.1112V7.77783ZM38.8889 7.77783H46.6667V15.5556H38.8889V7.77783ZM46.6667 7.77783H54.4445V15.5556H46.6667V7.77783ZM54.4445 7.77783H62.2223V15.5556H54.4445V7.77783ZM70.0001 7.77783H77.7778V15.5556H70.0001V7.77783ZM85.5556 7.77783H93.3334V15.5556H85.5556V7.77783ZM101.111 7.77783H108.889V15.5556H101.111V7.77783ZM108.889 7.77783H116.667V15.5556H108.889V7.77783ZM132.222 7.77783H140V15.5556H132.222V7.77783ZM147.778 7.77783H155.556V15.5556H147.778V7.77783ZM155.556 7.77783H163.333V15.5556H155.556V7.77783ZM163.333 7.77783H171.111V15.5556H163.333V7.77783ZM171.111 7.77783H178.889V15.5556H171.111V7.77783ZM178.889 7.77783H186.667V15.5556H178.889V7.77783ZM186.667 7.77783H194.445V15.5556H186.667V7.77783ZM194.445 7.77783H202.222V15.5556H194.445V7.77783ZM7.77783 15.5556H15.5556V23.3334H7.77783V15.5556ZM54.4445 15.5556H62.2223V23.3334H54.4445V15.5556ZM77.7778 15.5556H85.5556V23.3334H77.7778V15.5556ZM85.5556 15.5556H93.3334V23.3334H85.5556V15.5556ZM93.3334 15.5556H101.111V23.3334H93.3334V15.5556ZM101.111 15.5556H108.889V23.3334H101.111V15.5556ZM108.889 15.5556H116.667V23.3334H108.889V15.5556ZM147.778 15.5556H155.556V23.3334H147.778V15.5556ZM194.445 15.5556H202.222V23.3334H194.445V15.5556ZM7.77783 23.3334H15.5556V31.1112H7.77783V23.3334ZM23.3334 23.3334H31.1112V31.1112H23.3334V23.3334ZM31.1112 23.3334H38.8889V31.1112H31.1112V23.3334ZM38.8889 23.3334H46.6667V31.1112H38.8889V23.3334ZM54.4445 23.3334H62.2223V31.1112H54.4445V23.3334ZM70.0001 23.3334H77.7778V31.1112H70.0001V23.3334ZM77.7778 23.3334H85.5556V31.1112H77.7778V23.3334ZM85.5556 23.3334H93.3334V31.1112H85.5556V23.3334ZM108.889 23.3334H116.667V31.1112H108.889V23.3334ZM116.667 23.3334H124.445V31.1112H116.667V23.3334ZM147.778 23.3334H155.556V31.1112H147.778V23.3334ZM163.333 23.3334H171.111V31.1112H163.333V23.3334ZM171.111 23.3334H178.889V31.1112H171.111V23.3334ZM178.889 23.3334H186.667V31.1112H178.889V23.3334ZM194.445 23.3334H202.222V31.1112H194.445V23.3334ZM7.77783 31.1112H15.5556V38.8889H7.77783V31.1112ZM23.3334 31.1112H31.1112V38.8889H23.3334V31.1112ZM31.1112 31.1112H38.8889V38.8889H31.1112V31.1112ZM38.8889 31.1112H46.6667V38.8889H38.8889V31.1112ZM54.4445 31.1112H62.2223V38.8889H54.4445V31.1112ZM70.0001 31.1112H77.7778V38.8889H70.0001V31.1112ZM77.7778 31.1112H85.5556V38.8889H77.7778V31.1112ZM85.5556 31.1112H93.3334V38.8889H85.5556V31.1112ZM101.111 31.1112H108.889V38.8889H101.111V31.1112ZM108.889 31.1112H116.667V38.8889H108.889V31.1112ZM124.445 31.1112H132.222V38.8889H124.445V31.1112ZM132.222 31.1112H140V38.8889H132.222V31.1112ZM147.778 31.1112H155.556V38.8889H147.778V31.1112ZM163.333 31.1112H171.111V38.8889H163.333V31.1112ZM171.111 31.1112H178.889V38.8889H171.111V31.1112ZM178.889 31.1112H186.667V38.8889H178.889V31.1112ZM194.445 31.1112H202.222V38.8889H194.445V31.1112ZM7.77783 38.8889H15.5556V46.6667H7.77783V38.8889ZM23.3334 38.8889H31.1112V46.6667H23.3334V38.8889ZM31.1112 38.8889H38.8889V46.6667H31.1112V38.8889ZM38.8889 38.8889H46.6667V46.6667H38.8889V38.8889ZM54.4445 38.8889H62.2223V46.6667H54.4445V38.8889ZM70.0001 38.8889H77.7778V46.6667H70.0001V38.8889ZM93.3334 38.8889H101.111V46.6667H93.3334V38.8889ZM101.111 38.8889H108.889V46.6667H101.111V38.8889ZM108.889 38.8889H116.667V46.6667H108.889V38.8889ZM116.667 38.8889H124.445V46.6667H116.667V38.8889ZM124.445 38.8889H132.222V46.6667H124.445V38.8889ZM132.222 38.8889H140V46.6667H132.222V38.8889ZM147.778 38.8889H155.556V46.6667H147.778V38.8889ZM163.333 38.8889H171.111V46.6667H163.333V38.8889ZM171.111 38.8889H178.889V46.6667H171.111V38.8889ZM178.889 38.8889H186.667V46.6667H178.889V38.8889ZM194.445 38.8889H202.222V46.6667H194.445V38.8889ZM7.77783 46.6667H15.5556V54.4445H7.77783V46.6667ZM54.4445 46.6667H62.2223V54.4445H54.4445V46.6667ZM85.5556 46.6667H93.3334V54.4445H85.5556V46.6667ZM93.3334 46.6667H101.111V54.4445H93.3334V46.6667ZM116.667 46.6667H124.445V54.4445H116.667V46.6667ZM132.222 46.6667H140V54.4445H132.222V46.6667ZM147.778 46.6667H155.556V54.4445H147.778V46.6667ZM194.445 46.6667H202.222V54.4445H194.445V46.6667ZM7.77783 54.4445H15.5556V62.2223H7.77783V54.4445ZM15.5556 54.4445H23.3334V62.2223H15.5556V54.4445ZM23.3334 54.4445H31.1112V62.2223H23.3334V54.4445ZM31.1112 54.4445H38.8889V62.2223H31.1112V54.4445ZM38.8889 54.4445H46.6667V62.2223H38.8889V54.4445ZM46.6667 54.4445H54.4445V62.2223H46.6667V54.4445ZM54.4445 54.4445H62.2223V62.2223H54.4445V54.4445ZM70.0001 54.4445H77.7778V62.2223H70.0001V54.4445ZM85.5556 54.4445H93.3334V62.2223H85.5556V54.4445ZM101.111 54.4445H108.889V62.2223H101.111V54.4445ZM116.667 54.4445H124.445V62.2223H116.667V54.4445ZM132.222 54.4445H140V62.2223H132.222V54.4445ZM147.778 54.4445H155.556V62.2223H147.778V54.4445ZM155.556 54.4445H163.333V62.2223H155.556V54.4445ZM163.333 54.4445H171.111V62.2223H163.333V54.4445ZM171.111 54.4445H178.889V62.2223H171.111V54.4445ZM178.889 54.4445H186.667V62.2223H178.889V54.4445ZM186.667 54.4445H194.445V62.2223H186.667V54.4445ZM194.445 54.4445H202.222V62.2223H194.445V54.4445ZM85.5556 62.2223H93.3334V70.0001H85.5556V62.2223ZM101.111 62.2223H108.889V70.0001H101.111V62.2223ZM124.445 62.2223H132.222V70.0001H124.445V62.2223ZM132.222 62.2223H140V70.0001H132.222V62.2223ZM7.77783 70.0001H15.5556V77.7778H7.77783V70.0001ZM15.5556 70.0001H23.3334V77.7778H15.5556V70.0001ZM23.3334 70.0001H31.1112V77.7778H23.3334V70.0001ZM31.1112 70.0001H38.8889V77.7778H31.1112V70.0001ZM54.4445 70.0001H62.2223V77.7778H54.4445V70.0001ZM70.0001 70.0001H77.7778V77.7778H70.0001V70.0001ZM85.5556 70.0001H93.3334V77.7778H85.5556V70.0001ZM93.3334 70.0001H101.111V77.7778H93.3334V70.0001ZM101.111 70.0001H108.889V77.7778H101.111V70.0001ZM116.667 70.0001H124.445V77.7778H116.667V70.0001ZM124.445 70.0001H132.222V77.7778H124.445V70.0001ZM132.222 70.0001H140V77.7778H132.222V70.0001ZM140 70.0001H147.778V77.7778H140V70.0001ZM163.333 70.0001H171.111V77.7778H163.333V70.0001ZM171.111 70.0001H178.889V77.7778H171.111V70.0001ZM178.889 70.0001H186.667V77.7778H178.889V70.0001ZM194.445 70.0001H202.222V77.7778H194.445V70.0001ZM7.77783 77.7778H15.5556V85.5556H7.77783V77.7778ZM15.5556 77.7778H23.3334V85.5556H15.5556V77.7778ZM23.3334 77.7778H31.1112V85.5556H23.3334V77.7778ZM31.1112 77.7778H38.8889V85.5556H31.1112V77.7778ZM38.8889 77.7778H46.6667V85.5556H38.8889V77.7778ZM70.0001 77.7778H77.7778V85.5556H70.0001V77.7778ZM85.5556 77.7778H93.3334V85.5556H85.5556V77.7778ZM101.111 77.7778H108.889V85.5556H101.111V77.7778ZM108.889 77.7778H116.667V85.5556H108.889V77.7778ZM155.556 77.7778H163.333V85.5556H155.556V77.7778ZM186.667 77.7778H194.445V85.5556H186.667V77.7778ZM7.77783 85.5556H15.5556V93.3334H7.77783V85.5556ZM15.5556 85.5556H23.3334V93.3334H15.5556V85.5556ZM38.8889 85.5556H46.6667V93.3334H38.8889V85.5556ZM54.4445 85.5556H62.2223V93.3334H54.4445V85.5556ZM70.0001 85.5556H77.7778V93.3334H70.0001V85.5556ZM77.7778 85.5556H85.5556V93.3334H77.7778V85.5556ZM85.5556 85.5556H93.3334V93.3334H85.5556V85.5556ZM93.3334 85.5556H101.111V93.3334H93.3334V85.5556ZM101.111 85.5556H108.889V93.3334H101.111V85.5556ZM132.222 85.5556H140V93.3334H132.222V85.5556ZM147.778 85.5556H155.556V93.3334H147.778V85.5556ZM155.556 85.5556H163.333V93.3334H155.556V85.5556ZM7.77783 93.3334H15.5556V101.111H7.77783V93.3334ZM31.1112 93.3334H38.8889V101.111H31.1112V93.3334ZM38.8889 93.3334H46.6667V101.111H38.8889V93.3334ZM46.6667 93.3334H54.4445V101.111H46.6667V93.3334ZM62.2223 93.3334H70.0001V101.111H62.2223V93.3334ZM77.7778 93.3334H85.5556V101.111H77.7778V93.3334ZM85.5556 93.3334H93.3334V101.111H85.5556V93.3334ZM108.889 93.3334H116.667V101.111H108.889V93.3334ZM116.667 93.3334H124.445V101.111H116.667V93.3334ZM124.445 93.3334H132.222V101.111H124.445V93.3334ZM132.222 93.3334H140V101.111H132.222V93.3334ZM147.778 93.3334H155.556V101.111H147.778V93.3334ZM163.333 93.3334H171.111V101.111H163.333V93.3334ZM171.111 93.3334H178.889V101.111H171.111V93.3334ZM178.889 93.3334H186.667V101.111H178.889V93.3334ZM31.1112 101.111H38.8889V108.889H31.1112V101.111ZM46.6667 101.111H54.4445V108.889H46.6667V101.111ZM54.4445 101.111H62.2223V108.889H54.4445V101.111ZM77.7778 101.111H85.5556V108.889H77.7778V101.111ZM85.5556 101.111H93.3334V108.889H85.5556V101.111ZM101.111 101.111H108.889V108.889H101.111V101.111ZM108.889 101.111H116.667V108.889H108.889V101.111ZM140 101.111H147.778V108.889H140V101.111ZM147.778 101.111H155.556V108.889H147.778V101.111ZM163.333 101.111H171.111V108.889H163.333V101.111ZM178.889 101.111H186.667V108.889H178.889V101.111ZM186.667 101.111H194.445V108.889H186.667V101.111ZM194.445 101.111H202.222V108.889H194.445V101.111ZM15.5556 108.889H23.3334V116.667H15.5556V108.889ZM31.1112 108.889H38.8889V116.667H31.1112V108.889ZM38.8889 108.889H46.6667V116.667H38.8889V108.889ZM77.7778 108.889H85.5556V116.667H77.7778V108.889ZM93.3334 108.889H101.111V116.667H93.3334V108.889ZM101.111 108.889H108.889V116.667H101.111V108.889ZM124.445 108.889H132.222V116.667H124.445V108.889ZM132.222 108.889H140V116.667H132.222V108.889ZM140 108.889H147.778V116.667H140V108.889ZM147.778 108.889H155.556V116.667H147.778V108.889ZM155.556 108.889H163.333V116.667H155.556V108.889ZM163.333 108.889H171.111V116.667H163.333V108.889ZM194.445 108.889H202.222V116.667H194.445V108.889ZM15.5556 116.667H23.3334V124.445H15.5556V116.667ZM31.1112 116.667H38.8889V124.445H31.1112V116.667ZM54.4445 116.667H62.2223V124.445H54.4445V116.667ZM62.2223 116.667H70.0001V124.445H62.2223V116.667ZM77.7778 116.667H85.5556V124.445H77.7778V116.667ZM93.3334 116.667H101.111V124.445H93.3334V116.667ZM116.667 116.667H124.445V124.445H116.667V116.667ZM132.222 116.667H140V124.445H132.222V116.667ZM140 116.667H147.778V124.445H140V116.667ZM163.333 116.667H171.111V124.445H163.333V116.667ZM178.889 116.667H186.667V124.445H178.889V116.667ZM186.667 116.667H194.445V124.445H186.667V116.667ZM7.77783 124.445H15.5556V132.222H7.77783V124.445ZM23.3334 124.445H31.1112V132.222H23.3334V124.445ZM38.8889 124.445H46.6667V132.222H38.8889V124.445ZM46.6667 124.445H54.4445V132.222H46.6667V124.445ZM93.3334 124.445H101.111V132.222H93.3334V124.445ZM116.667 124.445H124.445V132.222H116.667V124.445ZM132.222 124.445H140V132.222H132.222V124.445ZM140 124.445H147.778V132.222H140V124.445ZM147.778 124.445H155.556V132.222H147.778V124.445ZM155.556 124.445H163.333V132.222H155.556V124.445ZM163.333 124.445H171.111V132.222H163.333V124.445ZM194.445 124.445H202.222V132.222H194.445V124.445ZM23.3334 132.222H31.1112V140H23.3334V132.222ZM54.4445 132.222H62.2223V140H54.4445V132.222ZM62.2223 132.222H70.0001V140H62.2223V132.222ZM70.0001 132.222H77.7778V140H70.0001V132.222ZM77.7778 132.222H85.5556V140H77.7778V132.222ZM85.5556 132.222H93.3334V140H85.5556V132.222ZM108.889 132.222H116.667V140H108.889V132.222ZM124.445 132.222H132.222V140H124.445V132.222ZM132.222 132.222H140V140H132.222V132.222ZM140 132.222H147.778V140H140V132.222ZM147.778 132.222H155.556V140H147.778V132.222ZM155.556 132.222H163.333V140H155.556V132.222ZM163.333 132.222H171.111V140H163.333V132.222ZM171.111 132.222H178.889V140H171.111V132.222ZM178.889 132.222H186.667V140H178.889V132.222ZM186.667 132.222H194.445V140H186.667V132.222ZM194.445 132.222H202.222V140H194.445V132.222ZM70.0001 140H77.7778V147.778H70.0001V140ZM108.889 140H116.667V147.778H108.889V140ZM116.667 140H124.445V147.778H116.667V140ZM132.222 140H140V147.778H132.222V140ZM163.333 140H171.111V147.778H163.333V140ZM178.889 140H186.667V147.778H178.889V140ZM194.445 140H202.222V147.778H194.445V140ZM7.77783 147.778H15.5556V155.556H7.77783V147.778ZM15.5556 147.778H23.3334V155.556H15.5556V147.778ZM23.3334 147.778H31.1112V155.556H23.3334V147.778ZM31.1112 147.778H38.8889V155.556H31.1112V147.778ZM38.8889 147.778H46.6667V155.556H38.8889V147.778ZM46.6667 147.778H54.4445V155.556H46.6667V147.778ZM54.4445 147.778H62.2223V155.556H54.4445V147.778ZM77.7778 147.778H85.5556V155.556H77.7778V147.778ZM108.889 147.778H116.667V155.556H108.889V147.778ZM116.667 147.778H124.445V155.556H116.667V147.778ZM132.222 147.778H140V155.556H132.222V147.778ZM147.778 147.778H155.556V155.556H147.778V147.778ZM163.333 147.778H171.111V155.556H163.333V147.778ZM178.889 147.778H186.667V155.556H178.889V147.778ZM186.667 147.778H194.445V155.556H186.667V147.778ZM194.445 147.778H202.222V155.556H194.445V147.778ZM7.77783 155.556H15.5556V163.333H7.77783V155.556ZM54.4445 155.556H62.2223V163.333H54.4445V155.556ZM101.111 155.556H108.889V163.333H101.111V155.556ZM124.445 155.556H132.222V163.333H124.445V155.556ZM132.222 155.556H140V163.333H132.222V155.556ZM163.333 155.556H171.111V163.333H163.333V155.556ZM7.77783 163.333H15.5556V171.111H7.77783V163.333ZM23.3334 163.333H31.1112V171.111H23.3334V163.333ZM31.1112 163.333H38.8889V171.111H31.1112V163.333ZM38.8889 163.333H46.6667V171.111H38.8889V163.333ZM54.4445 163.333H62.2223V171.111H54.4445V163.333ZM77.7778 163.333H85.5556V171.111H77.7778V163.333ZM85.5556 163.333H93.3334V171.111H85.5556V163.333ZM116.667 163.333H124.445V171.111H116.667V163.333ZM132.222 163.333H140V171.111H132.222V163.333ZM140 163.333H147.778V171.111H140V163.333ZM147.778 163.333H155.556V171.111H147.778V163.333ZM155.556 163.333H163.333V171.111H155.556V163.333ZM163.333 163.333H171.111V171.111H163.333V163.333ZM171.111 163.333H178.889V171.111H171.111V163.333ZM194.445 163.333H202.222V171.111H194.445V163.333ZM7.77783 171.111H15.5556V178.889H7.77783V171.111ZM23.3334 171.111H31.1112V178.889H23.3334V171.111ZM31.1112 171.111H38.8889V178.889H31.1112V171.111ZM38.8889 171.111H46.6667V178.889H38.8889V171.111ZM54.4445 171.111H62.2223V178.889H54.4445V171.111ZM70.0001 171.111H77.7778V178.889H70.0001V171.111ZM77.7778 171.111H85.5556V178.889H77.7778V171.111ZM85.5556 171.111H93.3334V178.889H85.5556V171.111ZM93.3334 171.111H101.111V178.889H93.3334V171.111ZM140 171.111H147.778V178.889H140V171.111ZM147.778 171.111H155.556V178.889H147.778V171.111ZM163.333 171.111H171.111V178.889H163.333V171.111ZM171.111 171.111H178.889V178.889H171.111V171.111ZM178.889 171.111H186.667V178.889H178.889V171.111ZM186.667 171.111H194.445V178.889H186.667V171.111ZM194.445 171.111H202.222V178.889H194.445V171.111ZM7.77783 178.889H15.5556V186.667H7.77783V178.889ZM23.3334 178.889H31.1112V186.667H23.3334V178.889ZM31.1112 178.889H38.8889V186.667H31.1112V178.889ZM38.8889 178.889H46.6667V186.667H38.8889V178.889ZM54.4445 178.889H62.2223V186.667H54.4445V178.889ZM70.0001 178.889H77.7778V186.667H70.0001V178.889ZM77.7778 178.889H85.5556V186.667H77.7778V178.889ZM93.3334 178.889H101.111V186.667H93.3334V178.889ZM101.111 178.889H108.889V186.667H101.111V178.889ZM132.222 178.889H140V186.667H132.222V178.889ZM140 178.889H147.778V186.667H140V178.889ZM147.778 178.889H155.556V186.667H147.778V178.889ZM163.333 178.889H171.111V186.667H163.333V178.889ZM178.889 178.889H186.667V186.667H178.889V178.889ZM186.667 178.889H194.445V186.667H186.667V178.889ZM7.77783 186.667H15.5556V194.445H7.77783V186.667ZM54.4445 186.667H62.2223V194.445H54.4445V186.667ZM70.0001 186.667H77.7778V194.445H70.0001V186.667ZM85.5556 186.667H93.3334V194.445H85.5556V186.667ZM108.889 186.667H116.667V194.445H108.889V186.667ZM140 186.667H147.778V194.445H140V186.667ZM147.778 186.667H155.556V194.445H147.778V186.667ZM163.333 186.667H171.111V194.445H163.333V186.667ZM178.889 186.667H186.667V194.445H178.889V186.667ZM7.77783 194.445H15.5556V202.222H7.77783V194.445ZM15.5556 194.445H23.3334V202.222H15.5556V194.445ZM23.3334 194.445H31.1112V202.222H23.3334V194.445ZM31.1112 194.445H38.8889V202.222H31.1112V194.445ZM38.8889 194.445H46.6667V202.222H38.8889V194.445ZM46.6667 194.445H54.4445V202.222H46.6667V194.445ZM54.4445 194.445H62.2223V202.222H54.4445V194.445ZM70.0001 194.445H77.7778V202.222H70.0001V194.445ZM77.7778 194.445H85.5556V202.222H77.7778V194.445ZM85.5556 194.445H93.3334V202.222H85.5556V194.445ZM93.3334 194.445H101.111V202.222H93.3334V194.445ZM108.889 194.445H116.667V202.222H108.889V194.445ZM116.667 194.445H124.445V202.222H116.667V194.445ZM147.778 194.445H155.556V202.222H147.778V194.445ZM155.556 194.445H163.333V202.222H155.556V194.445ZM163.333 194.445H171.111V202.222H163.333V194.445ZM171.111 194.445H178.889V202.222H171.111V194.445ZM178.889 194.445H186.667V202.222H178.889V194.445ZM186.667 194.445H194.445V202.222H186.667V194.445ZM194.445 194.445H202.222V202.222H194.445V194.445Z" fill="black"/>
</g>
<defs>
<clipPath id="clip0_1031_694">
<rect width="210" height="210" fill="white"/>
</clipPath>
</defs>
</svg>
